<?xml version="1.0" encoding="UTF-8"?>
<svg id="Livello_2" xmlns="http://www.w3.org/2000/svg" xmlns:xlink="http://www.w3.org/1999/xlink" viewBox="0 0 306.4 52.1">
  <defs>
    <style>
      .cls-1 {
        fill: url(#Sfumatura_senza_nome_16);
      }

      .cls-2 {
        fill: url(#Sfumatura_senza_nome_16-2);
      }

      .cls-3 {
        fill: #fff;
        stroke: #fff;
        stroke-miterlimit: 10;
        stroke-width: 1.65px;
      }
    </style>
    <linearGradient id="Sfumatura_senza_nome_16" data-name="Sfumatura senza nome 16" x1="254.32" y1="26.05" x2="306.4" y2="26.05" gradientUnits="userSpaceOnUse">
      <stop offset="0" stop-color="#af15ff"/>
      <stop offset=".06" stop-color="#a11bfb"/>
      <stop offset=".24" stop-color="#802af3"/>
      <stop offset=".42" stop-color="#6636ed"/>
      <stop offset=".6" stop-color="#533ee8"/>
      <stop offset=".79" stop-color="#4843e5"/>
      <stop offset="1" stop-color="#4545e5"/>
    </linearGradient>
    <linearGradient id="Sfumatura_senza_nome_16-2" data-name="Sfumatura senza nome 16" x1="278.75" y1="35.51" x2="300.84" y2="35.51" xlink:href="#Sfumatura_senza_nome_16"/>
  </defs>
  <g id="Livello_1-2" data-name="Livello_1">
    <g>
      <g>
        <path class="cls-1" d="M306.4,4.17v1.73c-.15.69-.27,1.39-.46,2.07-.96,3.36-2.65,6.37-4.54,9.27-2.99,4.59-6.45,8.8-10.18,12.8-5.94,6.37-12.34,12.2-19.63,17.02-2.39,1.58-4.87,3.02-7.58,3.99-1.24.44-2.53.71-3.8,1.06h-1.73s-.08-.07-.13-.07c-2.15-.24-3.94-1.8-4.02-4.65-.06-1.97.52-3.81,1.27-5.61,1.3-3.13,3.07-5.99,5-8.77.23-.33.29-.62.17-1.02-1.16-3.9-1.2-7.81-.07-11.72,2.79-9.64,12.33-15.9,22.28-14.54,6.39.87,11.37,4.05,14.84,9.53.08.13.18.26.28.41,1.61-2.5,3.06-5.01,4.09-7.73.34-.91.55-1.89.66-2.85.11-1.06-.48-1.59-1.54-1.5-.65.06-1.33.16-1.93.4-1.62.64-3.21,1.35-4.8,2.06-.28.13-.47.13-.74-.04-.64-.42-1.3-.8-1.95-1.18-.4-.23-.83-.44-1.3-.69,2.21-1.34,4.41-2.52,6.79-3.35,1.42-.49,2.86-.85,4.37-.78,1.73.08,3.18.72,4.04,2.3.31.57.43,1.23.63,1.85ZM262.69,36.51c-.08.04-.12.05-.13.07-1.64,2.57-3.17,5.21-4.18,8.1-.28.79-.43,1.64-.49,2.47-.07.91.44,1.39,1.37,1.37.59-.02,1.18-.12,1.75-.27,2.51-.67,4.76-1.92,6.98-3.22.66-.39,1.3-.81,2.01-1.26-3.09-1.83-5.51-4.24-7.3-7.27Z"/>
        <path class="cls-2" d="M300.76,24.47c1.15,12.13-9.2,23.07-22.01,22.01,8.27-6.44,15.56-13.74,22.01-22.01Z"/>
      </g>
      <g>
        <path class="cls-3" d="M.83,7.26h7.13v37.83H.83V7.26Z"/>
        <path class="cls-3" d="M15.57,7.26h7.03l11.57,20.03h.42l11.57-20.03h7.08v37.83h-7.08v-18.65l.42-6.34h-.42l-9.62,16.96h-4.28l-9.67-16.96h-.42l.42,6.34v18.65h-7.03V7.26Z"/>
        <path class="cls-3" d="M60.86,45.1V7.26h13.32c1.8,0,3.48.29,5.05.87,1.57.58,2.93,1.4,4.1,2.46,1.16,1.06,2.08,2.32,2.75,3.78s1,3.07,1,4.83-.34,3.43-1,4.89-1.59,2.72-2.75,3.78c-1.16,1.06-2.53,1.88-4.1,2.46-1.57.58-3.25.87-5.05.87h-6.18v13.9h-7.13ZM74.28,24.43c1.87,0,3.28-.53,4.23-1.59.95-1.06,1.43-2.27,1.43-3.65,0-.67-.11-1.32-.34-1.96-.23-.63-.58-1.19-1.06-1.66-.48-.48-1.07-.85-1.77-1.14-.7-.28-1.53-.42-2.48-.42h-6.29v10.41h6.29Z"/>
        <path class="cls-3" d="M99.48,7.26h8.14l14.22,37.83h-7.87l-3.12-9.04h-14.58l-3.12,9.04h-7.87l14.22-37.83ZM108.52,29.51l-3.38-9.46-1.37-4.6h-.42l-1.37,4.6-3.38,9.46h9.94Z"/>
        <path class="cls-3" d="M126.27,7.26h7.13v16.22h.42l13.84-16.22h8.61v.42l-13.69,15.64,15.11,21.35v.42h-8.72l-11.26-16.12-4.33,5.02v11.1h-7.13V7.26Z"/>
        <path class="cls-3" d="M161.62,7.26h7.13v16.22h.42l13.84-16.22h8.61v.42l-13.69,15.64,15.11,21.35v.42h-8.72l-11.26-16.12-4.33,5.02v11.1h-7.13V7.26Z"/>
        <path class="cls-3" d="M196.98,7.26h7.13v16.22h.42l13.84-16.22h8.61v.42l-13.69,15.64,15.11,21.35v.42h-8.72l-11.26-16.12-4.33,5.02v11.1h-7.13V7.26Z"/>
        <path class="cls-3" d="M240.36,45.1V14.03h-10.57v-6.76h28.27v6.76h-10.57v31.07h-7.13Z"/>
      </g>
    </g>
  </g>
</svg>